<svg t="1771516504154" class="icon" viewBox="0 0 1024 1024" version="1.1" xmlns="http://www.w3.org/2000/svg" p-id="10601" width="32" height="32"><path d="M720.213333 361.173333l120.533334 120.746667a42.666667 42.666667 0 0 1 0 60.16l-120.533334 120.746667a42.666667 42.666667 0 1 1-60.373333-60.373334L707.626667 554.666667H476.586667a42.666667 42.666667 0 0 1 0-85.333334h231.04l-47.786667-47.786666a42.666667 42.666667 0 1 1 60.373333-60.373334z" p-id="10602"></path><path d="M597.333333 170.666667a42.666667 42.666667 0 0 0-42.666666-42.666667H298.666667a128 128 0 0 0-128 128v512a128 128 0 0 0 128 128h256a42.666667 42.666667 0 0 0 42.666666-42.666667 42.666667 42.666667 0 0 0-42.666666-42.666666H298.666667a42.666667 42.666667 0 0 1-42.666667-42.666667V256a42.666667 42.666667 0 0 1 42.666667-42.666667h256a42.666667 42.666667 0 0 0 42.666666-42.666666z" p-id="10603"></path></svg>