<?xml version="1.0" standalone="no"?><!DOCTYPE svg PUBLIC "-//W3C//DTD SVG 1.1//EN" "http://www.w3.org/Graphics/SVG/1.1/DTD/svg11.dtd"><svg t="1771171621460" class="icon" viewBox="0 0 1049 1024" version="1.1" xmlns="http://www.w3.org/2000/svg" p-id="17510" xmlns:xlink="http://www.w3.org/1999/xlink" width="32.78125" height="32"><path d="M852.642898 1023.915639h-194.679748a45.974371 45.974371 0 0 1-48.620019-48.620019V741.779758a22.962227 22.962227 0 0 0-24.31001-24.31001H458.641039a22.962227 22.962227 0 0 0-24.31001 24.31001v233.465944a45.974371 45.974371 0 0 1-48.620019 48.620019H191.181015a97.589463 97.589463 0 0 1-97.289956-97.289956v-418.311869a48.669937 48.669937 0 1 1 97.289956 0v369.69185a45.974371 45.974371 0 0 0 48.62002 48.620019H337.090991v-257.726036a45.974371 45.974371 0 0 1 48.620019-48.620019h272.401893a45.974371 45.974371 0 0 1 48.62002 48.620019v257.775954h97.289956a45.974371 45.974371 0 0 0 48.620019-48.620019v-369.69185a48.669937 48.669937 0 1 1 97.289956 0v418.311869a97.589463 97.589463 0 0 1-97.289956 97.289956zM580.241004 21.913951a95.393077 95.393077 0 0 0-121.599965 0L20.861195 372.137826A48.070922 48.070922 0 0 0 50.063157 459.693795a69.136269 69.136269 0 0 0 29.201962-9.733988l442.621879-355.065909 447.513831 355.065909a69.136269 69.136269 0 0 0 29.201962 9.733988 48.070922 48.070922 0 0 0 29.201962-87.555969z" fill="#61707B" p-id="17511"></path></svg>