<svg t="1771516341620" class="icon" viewBox="0 0 1024 1024" version="1.1" xmlns="http://www.w3.org/2000/svg" p-id="8623" width="32" height="32"><path d="M512 64c141.376 0 256 114.624 256 256 0 98.773333-55.914667 184.448-137.813333 227.157333 136.064 34.56 224.64 133.994667 262.122666 295.04A96 96 0 0 1 798.826667 960h-573.653334a96 96 0 0 1-93.482666-117.781333c37.504-161.066667 126.08-260.48 262.122666-295.104C311.914667 504.448 256 418.773333 256 320c0-141.376 114.624-256 256-256z m0 533.333333c-173.610667 0-277.205333 84.309333-317.973333 259.370667A32 32 0 0 0 225.173333 896h573.653334a31.957333 31.957333 0 0 0 31.146666-39.274667C789.226667 681.642667 685.610667 597.333333 512 597.333333z m0-469.333333a192 192 0 1 0 0 384 192 192 0 0 0 0-384z" fill="#111111" p-id="8624"></path></svg>